<?xml version="1.0" encoding="UTF-8"?> <svg xmlns="http://www.w3.org/2000/svg" viewBox="-661.24230851 -1.92385824 536.20702121 536.20702121"><g fill-rule="evenodd"><path d="m-342.93756288 142.28295446 15-22 15 9 7-16-45-25-9 16 12 8-9 20z" fill="#5f5fc9"></path><path d="m-322.31564924 396.96231436 11-2 4 21 14-5 1 10-35 13-4-13 15-2z" fill="#1d459e"></path><path d="m-369.67872799 418.60101038 16-2 1 28h12v13l-42 1-2-14h17z" fill="#6b6bc9"></path><path d="m-461.85365095 384.08334061 12 6-19 28 13 8-5 11-42-19 7-14 14 7z" fill="#147783"></path><path d="m-474.68227755 158.71493753 14-5-8-24 13-4-11-16-44 24 5 12 21-7zm242.45408979 137.67581035-6 15 22 6-7 15 16 6 18-46-19-6-6 17zm-318.02388149-115.77827944-19 25 8 6 8-8 13 13 11-8-15-13 9-9z" fill="#5f5fc9"></path><path d="m-559.82443066 275.6519458a167 154 0 1 0 334 0 167 154 0 1 0 -334 0" fill="#5a8bff"></path><path d="m-443.26707686 66.29973685v23h22l1 70 20-2-4-67 23 1v-22z" fill="#4469c1"></path><path d="m-306.47024027 177.93843287 17 12 37-46 17 17 16-17-45-41-15 22 13 9z" fill="#580abe"></path><path d="m-259.3659964 221.1469206 4 16 42-17 6 23 18-5-18-63-19 4 4 23z" fill="#46cee1"></path><path d="m-261.53914458 338.89163526-7 14 36 25-9 18 17 8 28-46-18-13-11 17z" fill="#4971d0"></path><path d="m-291.5223622 369.08334061-11 7 23 39-15 8 11 14 38-19-10-18-13 7z" fill="#b540ff"></path><path d="m-536.89076528 292.8730781 2 17-37 6 3 15h-13l-5-55h13l3 16zm110.56066876 109.82740025 14.16726352-1.42720717-9 46 16 3-4 21-47-11 6-21 15 4z" fill="#1fb7c9"></path><path d="m-505.64871277 356.25471402 16 12-47 41 12 12-13 14-35-34 18-14 10 9z" fill="#365398"></path><path d="m-531.20172209 238.5453389 1 25-62-11-1 18-23-2 4-59 24 3-2 16z" fill="#5246eb"></path><path d="m-498.70083471 186.37041594-33-43 21-13-15-14-48 32 9 11 16-9 36 49z" fill="#750bff"></path><path d="m-528.54673476 273.20129433a128.97749561 132.88590457 0 1 0 257.95499122 0 128.97749561 132.88590457 0 1 0 -257.95499122 0" fill="#7aa9ff"></path><path d="m-516.1649161 239.23438208a55.31126514 43.66678827 0 1 0 110.62253029 0 55.31126514 43.66678827 0 1 0 -110.62253029 0m123.65854519-7.32773921a62.0864778 49.01100636 0 1 0 124.1729556 0 62.0864778 49.01100636 0 1 0 -124.1729556 0" fill="#59b783"></path><path d="m-504.56039215 233.37219072a37.84454984 30.56675179 0 1 0 75.68909967 0 37.84454984 30.56675179 0 1 0 -75.68909967 0m132.31146536 7.3277392a44.76012936 33.36283705 0 1 0 89.52025872 0 44.76012936 33.36283705 0 1 0 -89.52025872 0" fill="#b24fb7"></path><path d="m-493.63370685 237.76883424a28.38341238 21.83339414 0 1 0 56.76682475 0 28.38341238 21.83339414 0 1 0 -56.76682475 0m143.20234341 0a27.33920954 16.41477416 0 1 0 54.67841907 0 27.33920954 16.41477416 0 1 0 -54.67841907 0" fill="#fefeff"></path><path d="m-480.33103546 239.23438208a15.08074098 12.33878808 0 1 0 30.16148196 0 15.08074098 12.33878808 0 1 0 -30.16148196 0m136.59391524-.13151466a18.50818211 14.39525276 0 1 0 37.01636423 0 18.50818211 14.39525276 0 1 0 -37.01636423 0"></path><path d="m-456.15718936 285.71606682q57.58101103-28.79050551 156.15718936 14.28393318-49.90651426 101.56357709-116.39887222 83.05539498-51.41161699-17.82269389-69.9197991-75.40370491z"></path><path d="m-364.30176701 278.86118456 36.330876 8.22585871-32.21794664 29.47599374m-100.08128107-26.73404083 21.25013502 27.41952906 11.65329985-41.12929359-19.19367034 2.05646468m28.79050551-2.74195291 22.0757317 23.51930272 14.05422951-21.33981712-16.93629086-9.03436786z" fill="#fdfeff"></path><path d="m-459.58463049 354.95037769 28.79050551-19.19367034-3.42744113 39.75831714m57.95131795-13.94731586 1.00066952 21.48768635 28.59904269-16.65799222-19.00220751-25.84227782" fill="#fffefe"></path></g></svg> 