<?xml version="1.0" encoding="UTF-8"?> <svg xmlns="http://www.w3.org/2000/svg" viewBox="-643.63821929 19.40389084 493.55152305 493.55152305"><g fill-rule="evenodd"><path d="m-501.18787206 265.38447642a74.2597702 66.44295228 0 1 0 148.5195404 0 74.2597702 66.44295228 0 1 0 -148.5195404 0" fill="#bddaff"></path><path d="m-342.93756288 142.28295446 15-22 15 9 7-16-45-25-9 16 12 8-9 20z" fill="#5f5fc9"></path><path d="m-322.31564924 396.96231436 11-2 4 21 14-5 1 10-35 13-4-13 15-2z" fill="#1d459e"></path><path d="m-369.67872799 418.60101038 16-2 1 28h12v13l-42 1-2-14h17z" fill="#6b6bc9"></path><path d="m-461.85365095 384.08334061 12 6-19 28 13 8-5 11-42-19 7-14 14 7z" fill="#147783"></path><path d="m-474.68227755 158.71493753 14-5-8-24 13-4-11-16-44 24 5 12 21-7zm242.45408979 137.67581035-6 15 22 6-7 15 16 6 18-46-19-6-6 17zm-318.02388149-115.77827944-19 25 8 6 8-8 13 13 11-8-15-13 9-9z" fill="#5f5fc9"></path><path d="m-559.82443066 275.6519458a167 154 0 1 0 334 0 167 154 0 1 0 -334 0" fill="#5a8bff"></path><path d="m-443.26707686 66.29973685v23h22l1 70 20-2-4-67 23 1v-22z" fill="#4469c1"></path><path d="m-306.47024027 177.93843287 17 12 37-46 17 17 16-17-45-41-15 22 13 9z" fill="#580abe"></path><path d="m-259.3659964 221.1469206 4 16 42-17 6 23 18-5-18-63-19 4 4 23z" fill="#46cee1"></path><path d="m-261.53914458 338.89163526-7 14 36 25-9 18 17 8 28-46-18-13-11 17z" fill="#4971d0"></path><path d="m-291.5223622 369.08334061-11 7 23 39-15 8 11 14 38-19-10-18-13 7z" fill="#b540ff"></path><path d="m-536.89076528 292.8730781 2 17-37 6 3 15h-13l-5-55h13l3 16zm110.56066876 109.82740025 14.16726352-1.42720717-9 46 16 3-4 21-47-11 6-21 15 4z" fill="#1fb7c9"></path><path d="m-505.64871277 356.25471402 16 12-47 41 12 12-13 14-35-34 18-14 10 9z" fill="#365398"></path><path d="m-531.20172209 238.5453389 1 25-62-11-1 18-23-2 4-59 24 3-2 16z" fill="#5246eb"></path><path d="m-498.70083471 186.37041594-33-43 21-13-15-14-48 32 9 11 16-9 36 49z" fill="#750bff"></path><path d="m-528.54673476 273.20129433a128.97749561 132.88590457 0 1 0 257.95499122 0 128.97749561 132.88590457 0 1 0 -257.95499122 0" fill="#7aa9ff"></path><path d="m-452.76737156 338.85006656q60.79624391-26.76850073 145.79624391 13.23149927-3-67-95-65-72 6-79 71z"></path><path d="m-371.45523266 287.59746083 7.24538036 22.13627363 22.35433186-17.3065795-19.68769575-8.01958393" fill="#fffefe"></path><path d="m-424.21495493 289.06300867 20.5589295 17.01317225 14.0542295-21.33981712-17.62177908-2.86497383zm-39.56979171 24.9143133 21.63322438 7.21107479 5.76885983-29.56540665-18.66273028 6.37566882m79.33068967 35.26453618 18.74879446-14.42214959 25.08046763 22.98168543" fill="#fdfeff"></path><path d="m-385.73115825 231.90664287a55.31126514 43.66678827 0 1 0 110.62253029 0 55.31126514 43.66678827 0 1 0 -110.62253029 0m-130.43375785 7.32773921a55.31126514 43.66678827 0 1 0 110.62253029 0 55.31126514 43.66678827 0 1 0 -110.62253029 0" fill="#59b783"></path><path d="m-365.33334726 240.69992992a37.84454984 30.56675179 0 1 0 75.68909967 0 37.84454984 30.56675179 0 1 0 -75.68909967 0m-139.22704489-7.3277392a37.84454984 30.56675179 0 1 0 75.68909967 0 37.84454984 30.56675179 0 1 0 -75.68909967 0" fill="#b24fb7"></path><path d="m-351.47556628 237.76883424a28.38341238 21.83339414 0 1 0 56.76682475 0 28.38341238 21.83339414 0 1 0 -56.76682475 0m-142.15814057 0a28.38341238 21.83339414 0 1 0 56.76682475 0 28.38341238 21.83339414 0 1 0 -56.76682475 0" fill="#fefeff"></path><path d="m-337.53180619 242.16547776a11.50855661 18.19376052 0 1 0 23.01711322 0 11.50855661 18.19376052 0 1 0 -23.01711322 0m-142.79922927-2.93109568a15.08074098 12.33878808 0 1 0 30.16148196 0 15.08074098 12.33878808 0 1 0 -30.16148196 0"></path></g></svg> 